# xmcd
#
# Track frame offsets:
#	150
#	10148
#	20083
#	29679
#
# Disc length: 524 seconds
#
# Revision: 0
# Processed by: cddbd v1.5.2PL0 Copyright (c) Steve Scherf et al.
# Submitted via: EZCDAudioConverter 2.0.5.1
#
DISCID=2b020a04
DTITLE=The Ventures - French Sixties EP Collection - CD 8 - Wild
DYEAR=2005
DGENRE=Instrumental
TTITLE0=Wild Thing
TTITLE1=Wild And Wooly
TTITLE2=Wildcat
TTITLE3=Wild Child
EXTD=
EXTT0=
EXTT1=
EXTT2=
EXTT3=
PLAYORDER=
